<svg xmlns="http://www.w3.org/2000/svg" width="16" height="16"><style type="text/css">.icon-canvas-transparent{opacity:0;fill:#f6f6f6}.icon-vs-out{fill:#f6f6f6}.icon-vs-bg{fill:#424242}.icon-vs-fg{fill:#f0eff1}</style><path id="canvas" d="M16 16h-16v-16h16v16z" class="icon-canvas-transparent"/><path id="outline" d="M15 9h-3v3h-3v3h-8v-8h3v-3h3v-3h8v8z" class="icon-vs-out"/><path id="iconBg" d="M8 2v3h-3v3h-3v6h6v-3h3v-3h3v-6h-6zm-1 11h-4v-4h4v4zm3-3h-2v-2h-2v-2h4v4zm3-3h-2v-2h-2v-2h4v4z" class="icon-vs-bg"/><path id="iconFg" d="M13 3v4h-2v-2h-2v-2h4zm-7 3v2h2v2h2v-4h-4zm-3 7h4v-4h-4v4z" class="icon-vs-fg"/></svg>