<svg xmlns="http://www.w3.org/2000/svg" xmlns:xlink="http://www.w3.org/1999/xlink" width="16" height="16" version="1.1" viewBox="0 0 16 16"><title>run_history_dark</title><desc>Created with Sketch.</desc><g id="run_history_dark" fill="none" fill-rule="evenodd" stroke="none" stroke-width="1"><g id="Refresh" transform="translate(-2.000000, -2.000000)"><polygon id="Rectangle-2" fill="#FF8C02" points="13 3 16 3 13 6" transform="translate(14.500000, 4.500000) rotate(-180.000000) translate(-14.500000, -4.500000)"/><path id="Oval-2" stroke="#FF8C02" d="M10,17 C13.8659932,17 17,13.8659932 17,10 C17,8.06700338 16.2164983,6.31700338 14.9497475,5.05025253 C13.6829966,3.78350169 11.9329966,3 10,3 C6.13400675,3 3,6.13400675 3,10 C3,11.9329966 3.78350169,13.6829966 5.05025253,14.9497475" transform="translate(10.000000, 10.000000) rotate(-135.000000) translate(-10.000000, -10.000000)"/></g><g id="Group" fill="#B8D432" transform="translate(6.000000, 4.000000)"><circle id="Oval-3" cx="1.5" cy="4.5" r="1.5"/><rect id="Rectangle-3" width="1" height="4" x="3.5" y="2.5" transform="translate(4.000000, 4.500000) rotate(-270.000000) translate(-4.000000, -4.500000)"/><rect id="Rectangle-3" width="1" height="4" x="1" y="0"/></g></g></svg>