<svg xmlns="http://www.w3.org/2000/svg" width="16" height="16"><style type="text/css">.icon-canvas-transparent{opacity:0;fill:#f6f6f6}.icon-vs-out{fill:#f6f6f6}.icon-vs-red{fill:#e51400}.icon-white{fill:#fff}</style><path id="canvas" d="M16 16h-16v-16h16v16z" class="icon-canvas-transparent"/><path id="outline" d="M0 8c0-4.418 3.582-8 8-8s8 3.582 8 8-3.582 8-8 8-8-3.582-8-8z" class="icon-vs-out"/><path id="iconBg" d="M8 1c-3.865 0-7 3.134-7 7 0 3.865 3.135 7 7 7s7-3.135 7-7c0-3.866-3.135-7-7-7zm3 10h-6v-6h6v6z" class="icon-vs-red"/><path id="iconFg" d="M11 11h-6v-6h6v6z" class="icon-white"/></svg>